<svg version="1.1" xmlns="http://www.w3.org/2000/svg" width="325.79001" height="317.74866"
  viewBox="0 0 325.79001 317.74866">
  <path
    d="M 162.88,5.0051212e-6 C 72.939995,5.0051212e-6 -4.9948787e-6,72.930005 -4.9948787e-6,162.90001 -4.9948787e-6,234.87 46.669995,295.92 111.4,317.46 c 8.15,1.5 11.12,-3.53 11.12,-7.85 0,-3.87 -0.14,-14.11 -0.22,-27.7 -45.310005,9.84 -54.870005,-21.84 -54.870005,-21.84 -7.41,-18.82 -18.09,-23.83 -18.09,-23.83 -14.79,-10.1 1.12,-9.9 1.12,-9.9 16.35,1.15 24.95,16.79 24.95,16.79 14.53,24.89 38.130005,17.7 47.410005,13.53 1.48,-10.52 5.69,-17.7 10.34,-21.77 -36.170005,-4.11 -74.200005,-18.08999 -74.200005,-80.50999 0,-17.78 6.35,-32.33 16.77,-43.71 -1.68,-4.12 -7.27,-20.690005 1.6,-43.110005 0,0 13.67,-4.38 44.790005,16.7 12.99,-3.62 26.93,-5.42 40.78,-5.49 13.84,0.07 27.77,1.87 40.78,5.49 31.1,-21.08 44.75,-16.7 44.75,-16.7 8.89,22.42 3.3,38.990005 1.63,43.110005 10.44,11.38 16.74,25.93 16.74,43.71 0,62.58 -38.09,76.34999 -74.37,80.37999 5.84,5.03 11.05,14.97 11.05,30.16 0,21.78 -0.2,39.35 -0.2,44.69 0,4.36 2.94,9.43 11.2,7.84 64.68,-21.59 111.31,-82.6 111.31,-154.54999 C 325.79,72.930005 252.85,5.0051213e-6 162.88,5.0051213e-6"
    style="fill:#ffffff;fill-opacity:1;fill-rule:evenodd;stroke:none" />
</svg>