<svg id="Layer_1" xmlns="http://www.w3.org/2000/svg" width="20px" height="20px" viewBox="0 0 24 24">
    <path
        d="m20.33,4.39c-1.58-.73-3.24-1.24-4.95-1.53-.22.38-.46.89-.63,1.3-1.82-.27-3.67-.27-5.49,0-.19-.44-.41-.88-.65-1.3-1.71.29-3.38.81-4.96,1.54C.53,9.05-.32,13.6.1,18.08c1.83,1.36,3.89,2.4,6.07,3.07.49-.67.93-1.37,1.3-2.11-.71-.27-1.4-.59-2.05-.98.17-.13.34-.26.49-.39,3.85,1.82,8.3,1.82,12.15,0,.16.13.33.26.5.39-.65.39-1.34.72-2.05.98.37.74.81,1.44,1.3,2.11,2.19-.66,4.24-1.7,6.07-3.07.49-5.19-.85-9.7-3.57-13.69Zm-12.32,10.94c-1.18,0-2.16-1.08-2.16-2.42s.95-2.43,2.16-2.43,2.17,1.08,2.16,2.42-.95,2.42-2.16,2.42Zm7.97,0c-1.18,0-2.16-1.08-2.16-2.42s.95-2.43,2.16-2.43,2.17,1.08,2.16,2.42-.95,2.42-2.16,2.42Z"
        fill="#8c9af8" />
</svg>