<svg width="33" height="24" viewBox="0 0 33 24" fill="none" xmlns="http://www.w3.org/2000/svg">
<path d="M27.3169 2.00996C25.2366 1.05745 23.0406 0.381713 20.7847 0C20.476 0.551901 20.1967 1.11973 19.948 1.70112C17.5451 1.33898 15.1015 1.33898 12.6987 1.70112C12.4498 1.11979 12.1705 0.551968 11.8619 0C9.60464 0.384937 7.40713 1.06228 5.32481 2.01494C1.19087 8.132 0.0702246 14.0971 0.630547 19.9776C3.05148 21.7665 5.7612 23.127 8.64192 24C9.29057 23.1275 9.86454 22.2018 10.3578 21.2329C9.42097 20.883 8.51682 20.4512 7.65575 19.9427C7.88237 19.7783 8.10401 19.609 8.31818 19.4446C10.8237 20.623 13.5583 21.234 16.3271 21.234C19.0958 21.234 21.8304 20.623 24.3359 19.4446C24.5526 19.6214 24.7742 19.7908 24.9984 19.9427C24.1356 20.4521 23.2298 20.8846 22.2914 21.2354C22.784 22.2039 23.358 23.1287 24.0072 24C26.8904 23.1305 29.6022 21.7707 32.0236 19.9801C32.681 13.1606 30.9004 7.25031 27.3169 2.00996ZM11.0675 16.3611C9.50606 16.3611 8.21607 14.944 8.21607 13.2005C8.21607 11.457 9.46124 10.0274 11.0625 10.0274C12.6638 10.0274 13.9438 11.457 13.9164 13.2005C13.889 14.944 12.6588 16.3611 11.0675 16.3611ZM21.5866 16.3611C20.0227 16.3611 18.7377 14.944 18.7377 13.2005C18.7377 11.457 19.9829 10.0274 21.5866 10.0274C23.1904 10.0274 24.4605 11.457 24.4331 13.2005C24.4057 14.944 23.1779 16.3611 21.5866 16.3611Z" fill="#5865F2"/>
</svg>
