<svg width="166" height="28" viewBox="0 0 166 28" fill="none" xmlns="http://www.w3.org/2000/svg">
    <path
        d="M8.145 1.59766L0.5 25.9915H5.46833L7.1 20.45H16.5417L18.1733 25.9915H23.1417L15.4875 1.59766H8.145ZM8.6125 16.1865L11.8117 6.1989L15.0108 16.1865H8.60333H8.6125Z"
        fill="#FAFAFA" />
    <path
        d="M8.145 1.59766L0.5 25.9915H5.46833L7.1 20.45H16.5417L18.1733 25.9915H23.1417L15.4875 1.59766H8.145ZM8.6125 16.1865L11.8117 6.1989L15.0108 16.1865H8.60333H8.6125Z"
        fill="#FAFAFA" />
    <path d="M35.8467 1.59766H31.0892V25.9915H35.8467V1.59766Z" fill="#FAFAFA" />
    <path d="M35.8467 1.59766H31.0892V25.9915H35.8467V1.59766Z" fill="#FAFAFA" />
    <path
        d="M55.005 1.59766C55.005 1.59766 43.8125 1.94458 43.8125 13.7946C43.8125 25.6446 55.005 25.9915 55.005 25.9915H63.7958V12.343H59.0383V21.2625H55.2067C55.2067 21.2625 48.5975 20.8699 48.5975 13.7946C48.5975 6.71927 55.2067 6.33584 55.2067 6.33584H63.7958V1.59766H55.005Z"
        fill="#FAFAFA" />
    <path
        d="M55.005 1.59766C55.005 1.59766 43.8125 1.94458 43.8125 13.7946C43.8125 25.6446 55.005 25.9915 55.005 25.9915H63.7958V12.343H59.0383V21.2625H55.2067C55.2067 21.2625 48.5975 20.8699 48.5975 13.7946C48.5975 6.71927 55.2067 6.33584 55.2067 6.33584H63.7958V1.59766H55.005Z"
        fill="#FAFAFA" />
    <path
        d="M104.212 1.59766V25.9915H108.969L108.933 8.57255L118.393 25.9915H124.681V1.59766H119.923V18.898L110.436 1.59766H104.212Z"
        fill="#FAFAFA" />
    <path
        d="M104.212 1.59766V25.9915H108.969L108.933 8.57255L118.393 25.9915H124.681V1.59766H119.923V18.898L110.436 1.59766H104.212Z"
        fill="#FAFAFA" />
    <path d="M137.395 1.59766H132.638V25.9915H137.395V1.59766Z" fill="#FAFAFA" />
    <path d="M137.395 1.59766H132.638V25.9915H137.395V1.59766Z" fill="#FAFAFA" />
    <path
        d="M165.5 25.9915L158.295 13.7946L165.5 1.59766H159.771L155.435 8.94686L151.099 1.59766H145.37L152.575 13.7946L145.37 25.9915H151.099L155.435 18.6515L159.771 25.9915H165.5Z"
        fill="#FAFAFA" />
    <path
        d="M165.5 25.9915L158.295 13.7946L165.5 1.59766H159.771L155.435 8.94686L151.099 1.59766H145.37L152.575 13.7946L145.37 25.9915H151.099L155.435 18.6515L159.771 25.9915H165.5Z"
        fill="#FAFAFA" />
    <path
        d="M96.2367 7.00228L94.5958 6.05282L84.0633 0L71.89 7.00228V21.0068L84.0633 28.0091L96.2367 21.0068V7.00228ZM75.1717 10.791L82.4408 14.9723V23.2983L75.1717 19.1171V10.791ZM85.7317 14.9358L92.955 10.7819V19.1079L85.7317 23.2618V14.9358ZM84.0542 12.1148L76.8125 7.95174L84.0633 3.77959L91.305 7.94262L84.0542 12.1148Z"
        fill="#FAFAFA" />
    <defs>
        <clipPath id="clip0_7354_215922">
            <rect width="165" height="28" fill="white" transform="translate(0.5)" />
        </clipPath>
    </defs>
</svg>